<svg xmlns="http://www.w3.org/2000/svg" viewBox="0 0 1559 662"><defs><style>.cls-1{fill:#fa9611;}.cls-2{fill:#11fa4e;}.cls-3{fill:#ffc200;}.cls-4{fill:#7611fa;}.cls-5{fill:#113ffa;}</style></defs><g id="Layer_2" data-name="Layer 2"><g id="Layer_1-2" data-name="Layer 1"><path class="cls-1" d="M51.4,178.42C412.49,429.18,1154,248.22,1371,285.86c134.08,23.27-104.23,101.91-246.8,212.78-2,1.56-4,3.13-5.9,4.74-62.56,52.4-61.72,103.91,53.66,158.06l-64.3-.13C768,506.64,1579.13,323.45,1321.85,299.44,1059,274.92,332.49,438.6,0,223Z"/><path class="cls-2" d="M145.14,89.21c418.28,321.12,1185,101.63,1314.95,169.48,68.16,35.61-86.07,110.94-259.16,248.06-2,1.58-4,3.2-5.81,4.9-57.37,52.58-16.23,94,96.32,150.07l-64.29-.14c-114-55.11-135-101.58-75-154.07,1.87-1.65,3.84-3.25,5.85-4.82,157.84-124,354.37-200.09,253-230.41C1238.46,220.68,483.42,419.76,93.74,133.81Z"/><path class="cls-3" d="M247.94,0c633.3,521.43,1855.9-140.74,1038.82,514.86a67.4,67.4,0,0,0-5.71,5.06C1228.87,572.69,1310.3,604,1420,662l-64.29-.14c-111.15-57-172.43-93.4-117.65-146.07a74.39,74.39,0,0,1,5.75-5c188.36-150.25,301.38-228.12,265.35-265.7C1423.25,155.47,643.42,400.91,196.54,44.6Z"/><path class="cls-4" d="M1236.26,661.47c-114.75-55.12-135.88-101.58-75.5-154.07,1.88-1.65,3.86-3.25,5.88-4.82,158.93-124,356.82-200.1,254.73-230.42C1247.65,220.57,487.4,419.64,95,133.7L43.27,178.3c363.59,250.76,1110.24,69.8,1328.66,107.44,135,23.27-104.94,101.92-248.5,212.78q-3,2.34-5.93,4.74c-63,52.4-62.15,103.91,54,158.07Z"/><path class="cls-5" d="M1355.74,661.47c-111.15-57.05-172.43-93.4-117.65-146.08,1.8-1.74,3.75-3.39,5.75-5,188.36-150.25,301.38-228.11,265.35-265.69-85.94-89.65-865.77,155.8-1312.65-200.51l-51.4,44.61c418.28,321.12,1185,101.63,1314.95,169.48,68.16,35.6-86.07,110.94-259.16,248.05-2,1.58-4,3.21-5.81,4.91-57.37,52.58-16.23,94,96.32,150.07Z"/></g></g></svg>