<svg xmlns="http://www.w3.org/2000/svg" viewBox="0 0 1160.22 860.89"><defs><style>.cls-1{fill:#11fa4e;}.cls-2{fill:#fa9611;}.cls-3{fill:#ffc200;}.cls-4{fill:#7611fa;}</style></defs><g id="Layer_2" data-name="Layer 2"><g id="Layer_1-2" data-name="Layer 1"><path class="cls-1" d="M1040.66,859.47c15.51-46.08-111.4-127.59-141.27-148-55.71-38.12-213.29-113-255.81-172.53-64.26-90,421.48-172.59,334.85-250.38s-575.75-12.36-807.9-248.9L85,59.47C317.16,296,806.27,230.56,892.91,308.36S490.35,445.28,566.06,528.3c62.1,68.09,206.07,133.19,283.67,185.52,30,20.24,150.32,98.85,134.81,144.94Z"/><path class="cls-2" d="M341.57,0c232.15,236.54,721.26,171.09,807.9,248.89S769.78,450.12,798.63,560.18c10.12,38.62,187.66,137.48,200.1,146.52C1028,728,1168.4,814.81,1152.89,860.89l-56.12-.71c15.52-46.08-118-130.42-147.71-151.11-34-23.69-202.94-110.21-227.95-159.52-50.28-99.08,429.48-203,342.84-280.84S488.2,256.36,256.05,19.82Z"/><path class="cls-3" d="M85.52,60.08C317.68,296.62,806.78,231.18,893.42,309S490.87,445.89,566.58,528.91c62.1,68.1,206.07,133.2,283.66,185.53,30,20.24,150.33,98.85,134.82,144.94l-56.12-.72c15.51-46.08-98.22-121.79-128.36-141.85C701,650.5,572.2,592.94,489.06,518.29,402.42,440.49,894.54,406.6,807.9,328.8S232.15,316.44,0,79.91Z"/><path class="cls-4" d="M1097.29,860.8c15.52-46.09-118-130.42-147.71-151.11-34-23.69-202.94-110.22-228-159.52-50.27-99.08,429.48-203,342.85-280.84S488.72,257,256.57,20.44L171,40.26C403.2,276.8,892.31,211.36,978.94,289.15S579.83,449.56,644.1,539.54c42.52,59.53,200.1,134.4,255.81,172.52,29.86,20.44,156.78,101.94,141.26,148Z"/></g></g></svg>